<svg version="1.2" xmlns="http://www.w3.org/2000/svg" xmlns:xlink="http://www.w3.org/1999/xlink" overflow="visible" preserveAspectRatio="none" viewBox="0 0 20 19.00001" width="20" height="19.00001"><g transform="translate(0, 0)"><g transform="translate(0.000009999999997845066, 0.000010000000000065512) rotate(0)"><path d="M19.99867,3.98564v-1.35705h-2.72352v-2.6286h-1.30921v2.91901l-1.19878,1.04221c-1.56599,-1.60674 -3.73337,-2.60281 -6.12427,-2.60281c-4.76583,0 -8.6429,3.95715 -8.6429,8.8208c0,4.86365 3.87706,8.8208 8.6429,8.8208c4.76583,0 8.6429,-3.95715 8.6429,-8.8208c0,-1.9365 -0.61469,-3.72781 -1.65514,-5.18527l1.15886,-1.00693h3.21048zM15.9553,10.17649c0,4.11592 -3.281,7.46375 -7.3124,7.46375c-4.0314,0 -7.3124,-3.34783 -7.3124,-7.46375c0,-4.11592 3.281,-7.46375 7.3124,-7.46375c1.98643,0 3.78925,0.81287 5.1091,2.12921l-2.00905,1.74652c-0.82358,-0.74773 -1.90793,-1.2037 -3.09473,-1.2037c-2.56786,0 -4.65673,2.13056 -4.65673,4.74966c0,2.6191 2.08888,4.74966 4.65673,4.74966c2.56786,0 4.65673,-2.13056 4.65673,-4.74966c0,-0.92008 -0.25812,-1.78044 -0.70383,-2.50782l2.01437,-1.75059c0.84353,1.21727 1.33981,2.70188 1.33981,4.30184zM11.97445,10.13442c0,1.87001 -1.49282,3.39261 -3.32624,3.39261c-1.83342,0 -3.32624,-1.52261 -3.32624,-3.39261c0,-1.87001 1.49282,-3.39261 3.32624,-3.39261c0.781,0 1.5008,0.27684 2.06892,0.73823l-1.55269,1.35026c-0.14768,-0.057 -0.30734,-0.08957 -0.47366,-0.08957c-0.73177,0 -1.32384,0.60524 -1.32384,1.35026c0,0.74502 0.5934,1.35026 1.32384,1.35026c0.73044,0 1.32384,-0.60389 1.32384,-1.35026c0,-0.06921 -0.00532,-0.13706 -0.01464,-0.20356l1.57398,-1.3679c0.25546,0.48039 0.40181,1.03 0.40181,1.61488z" style="stroke-width: 0; stroke-linecap: butt; stroke-linejoin: miter; fill: rgb(0, 152, 210);" vector-effect="non-scaling-stroke"/></g><defs><path id="path-16137176492546254" d="M19.99867,3.98564v-1.35705h-2.72352v-2.6286h-1.30921v2.91901l-1.19878,1.04221c-1.56599,-1.60674 -3.73337,-2.60281 -6.12427,-2.60281c-4.76583,0 -8.6429,3.95715 -8.6429,8.8208c0,4.86365 3.87706,8.8208 8.6429,8.8208c4.76583,0 8.6429,-3.95715 8.6429,-8.8208c0,-1.9365 -0.61469,-3.72781 -1.65514,-5.18527l1.15886,-1.00693h3.21048zM15.9553,10.17649c0,4.11592 -3.281,7.46375 -7.3124,7.46375c-4.0314,0 -7.3124,-3.34783 -7.3124,-7.46375c0,-4.11592 3.281,-7.46375 7.3124,-7.46375c1.98643,0 3.78925,0.81287 5.1091,2.12921l-2.00905,1.74652c-0.82358,-0.74773 -1.90793,-1.2037 -3.09473,-1.2037c-2.56786,0 -4.65673,2.13056 -4.65673,4.74966c0,2.6191 2.08888,4.74966 4.65673,4.74966c2.56786,0 4.65673,-2.13056 4.65673,-4.74966c0,-0.92008 -0.25812,-1.78044 -0.70383,-2.50782l2.01437,-1.75059c0.84353,1.21727 1.33981,2.70188 1.33981,4.30184zM11.97445,10.13442c0,1.87001 -1.49282,3.39261 -3.32624,3.39261c-1.83342,0 -3.32624,-1.52261 -3.32624,-3.39261c0,-1.87001 1.49282,-3.39261 3.32624,-3.39261c0.781,0 1.5008,0.27684 2.06892,0.73823l-1.55269,1.35026c-0.14768,-0.057 -0.30734,-0.08957 -0.47366,-0.08957c-0.73177,0 -1.32384,0.60524 -1.32384,1.35026c0,0.74502 0.5934,1.35026 1.32384,1.35026c0.73044,0 1.32384,-0.60389 1.32384,-1.35026c0,-0.06921 -0.00532,-0.13706 -0.01464,-0.20356l1.57398,-1.3679c0.25546,0.48039 0.40181,1.03 0.40181,1.61488z" vector-effect="non-scaling-stroke"/></defs></g></svg>